# xmcd
#
# Track frame offsets: 
#        150
#        93247
#        132623
#        170680
#        242113
#        267012
#
# Disc length: 4052 seconds
#
# Revision: 1
# Processed by: cddbd v1.5.2PL0 Copyright (c) Steve Scherf et al.
# Submitted via: ExactAudioCopy v1.0b3
#
DISCID=4f0fd206
DTITLE=Jascha Heifetz - Jascha Heifetz plays Great Violin Concertos ,C
DTITLE=D1
DYEAR=2010
DGENRE=Classical
TTITLE0=Beethoven Violin Concerto, I.Allegro ma non troppo
TTITLE1=Beethoven Violin Concerto, II.Larghetto
TTITLE2=Beethoven Violin Concerto, III.Rondo:allegro
TTITLE3=Tchaikovsky:Violin Concerto in D major, Op. 35: 1. Allegro mod
TTITLE3=erato
TTITLE4=Tchaikovsky: Violin Concerto in D major, Op. 35: 2. Andante
TTITLE5=Tchaikovsky:Violin Concerto in D major, Op. 35: 3. Allegro viv
TTITLE5=acissimo
EXTD=
EXTT0=
EXTT1=
EXTT2=
EXTT3=
EXTT4=
EXTT5=
PLAYORDER=
